<svg xmlns="http://www.w3.org/2000/svg" width="1200" height="630" viewBox="0 0 1200 630" role="img" aria-labelledby="title desc">
  <title id="title">2026 지방선거 실시간 개표율 공유 이미지</title>
  <desc id="desc">전국 개표 상황과 지역별 후보 우세율을 강조한 공유용 이미지 후보입니다.</desc>
  <rect width="1200" height="630" fill="#f8fafc"/>
  <rect x="56" y="52" width="1088" height="526" rx="42" fill="#ffffff" stroke="#d8dee6" stroke-width="3"/>
  <rect x="92" y="96" width="148" height="46" rx="23" fill="#2f3437"/>
  <text x="166" y="127" text-anchor="middle" font-family="-apple-system, BlinkMacSystemFont, 'Noto Sans KR', sans-serif" font-size="24" font-weight="700" fill="#ffffff">LIVE</text>
  <text x="92" y="220" font-family="-apple-system, BlinkMacSystemFont, 'Noto Sans KR', sans-serif" font-size="70" font-weight="800" fill="#111827">2026 지방선거</text>
  <text x="92" y="310" font-family="-apple-system, BlinkMacSystemFont, 'Noto Sans KR', sans-serif" font-size="82" font-weight="800" fill="#111827">실시간 개표율</text>
  <text x="96" y="376" font-family="-apple-system, BlinkMacSystemFont, 'Noto Sans KR', sans-serif" font-size="30" font-weight="600" fill="#475569">전국 개표 상황과 지역별 후보 우세율</text>
  <text x="96" y="420" font-family="-apple-system, BlinkMacSystemFont, 'Noto Sans KR', sans-serif" font-size="30" font-weight="600" fill="#475569">개표방송을 한 화면에서 확인</text>
  <g transform="translate(766 134)">
    <rect x="0" y="0" width="292" height="318" rx="36" fill="#2f3437"/>
    <path d="M54 72h184" stroke="#f8fafc" stroke-width="26" stroke-linecap="round"/>
    <path d="M54 128h132" stroke="#cbd5e1" stroke-width="18" stroke-linecap="round"/>
    <rect x="52" y="194" width="52" height="82" rx="15" fill="#2563eb"/>
    <rect x="120" y="154" width="52" height="122" rx="15" fill="#dc2626"/>
    <rect x="188" y="216" width="52" height="60" rx="15" fill="#0f766e"/>
    <path d="m72 292 26 26 64-72" fill="none" stroke="#facc15" stroke-width="20" stroke-linecap="round" stroke-linejoin="round"/>
  </g>
  <text x="96" y="510" font-family="-apple-system, BlinkMacSystemFont, 'Noto Sans KR', sans-serif" font-size="28" font-weight="700" fill="#2f3437">gaepyo-live.vercel.app</text>
</svg>
